<svg id="filled_outline" height="512" viewBox="0 0 512 512" width="512" xmlns="http://www.w3.org/2000/svg" data-name="filled outline"><path d="m208 320h16l8-72h-32z" fill="#878784"/><path d="m229.167 273.5 2.833-25.5h-32l4.966 44.693a40.08 40.08 0 0 1 24.201-19.193z" fill="#70706f"/><path d="m32 208-8 16 8 16 40 8 8-24-8-24z" fill="#d1cfc3"/><path d="m72 234.9a81.053 81.053 0 0 1 -46.243-14.411l-1.757 3.511 8 16 40 8 4.409-13.227c-1.46.079-2.93.127-4.409.127z" fill="#b7b2a5"/><path d="m72 248-24 40h32l32-40-24-8z" fill="#b7b2a5"/><path d="m96 256a64.556 64.556 0 0 1 9.078.652l6.922-8.652-24-8-16 8-11.093 18.487a63.692 63.692 0 0 1 35.093-10.487z" fill="#999488"/><path d="m216 216-64-48h40l104 48z" fill="#b7b2a5"/><path d="m216.505 179.31a47.817 47.817 0 0 1 -32.505 12.69l32 24h80z" fill="#999488"/><path d="m416 240v24a16 16 0 0 0 16 16 16 16 0 0 0 16-16v-24z" fill="#ffa511"/><path d="m440 240v16a15.979 15.979 0 0 1 -22.575 14.575 15.993 15.993 0 0 0 30.575-6.575v-24z" fill="#f08015"/><circle cx="216" cy="328" fill="#3f484f" r="16"/><path d="m296 280v24a49.279 49.279 0 0 1 15.589 2.53l14.292 4.764a13.785 13.785 0 0 0 4.353.706 13.766 13.766 0 0 0 13.766-13.766v-12.468a13.766 13.766 0 0 0 -13.766-13.766 13.785 13.785 0 0 0 -4.353.706l-14.292 4.764a49.279 49.279 0 0 1 -15.589 2.53z" fill="#ffa511"/><path d="m72 200 217.036-7.484a91.55 91.55 0 0 0 28.983-5.773l34.441-12.915a91.517 91.517 0 0 1 32.14-5.828 91.523 91.523 0 0 1 56.191 19.28l47.209 36.72-4.353 13.06a16 16 0 0 1 -15.179 10.94h-396.468z" fill="#ededeb"/><path d="m106.309 235.383q-17.209 0-34.309-.483v13.1h396.468a16 16 0 0 0 15.179-10.94l4.353-13.06-45.574-35.447a1222.438 1222.438 0 0 1 -336.117 46.83z" fill="#dbdbd9"/><path d="m216 232h80l-120 56h-48z" fill="#d1cfc3"/><path d="m335.1 272.9a13.713 13.713 0 0 1 .9 4.865v12.468a13.764 13.764 0 0 1 -18.119 13.059l-14.292-4.763a49.275 49.275 0 0 0 -7.589-1.874v7.345a49.279 49.279 0 0 1 15.589 2.53l14.292 4.763a13.764 13.764 0 0 0 18.119-13.059v-12.468a13.759 13.759 0 0 0 -8.9-12.866z" fill="#f08015"/><circle cx="400" cy="328" fill="#3f484f" r="16"/><path d="m406.575 313.425a15.979 15.979 0 0 1 -21.15 21.15 15.993 15.993 0 1 0 21.15-21.15z" fill="#2a3135"/><path d="m222.575 313.425a15.979 15.979 0 0 1 -21.15 21.15 15.993 15.993 0 1 0 21.15-21.15z" fill="#2a3135"/><path d="m216 240a55.764 55.764 0 0 1 35.559 12.739l44.441-20.739h-80l-16.427 10.454a55.976 55.976 0 0 1 16.427-2.454z" fill="#b7b2a5"/><path d="m492.911 217.686-47.211-36.721a99.525 99.525 0 0 0 -96.049-14.628l-34.439 12.915a83.371 83.371 0 0 1 -26.45 5.269l-38.962 1.343-54.444-25.128a8.005 8.005 0 0 0 -3.356-.736h-40a8 8 0 0 0 -4.8 14.4l19.123 14.343-94.6 3.262c-.068 0-.134.013-.2.017-.132.008-.263.018-.395.033-.168.018-.332.043-.5.071-.068.012-.135.016-.2.029l-40 8a8 8 0 0 0 -5.586 4.267l-8 16a8 8 0 0 0 0 7.156l8 16a8 8 0 0 0 5.586 4.267l28.872 5.773-18.16 30.266a8 8 0 0 0 6.86 12.116h32a8 8 0 0 0 6.247-3l29.6-37h47.54l-39.68 25.251a8 8 0 0 0 4.293 14.749h48a7.989 7.989 0 0 0 3.383-.751l16.939-7.905 2.641 23.771a24 24 0 1 0 34.074 0l4.793-43.141 25.658-11.974h40.512v15.214a41.207 41.207 0 0 1 -8 .786 8 8 0 0 0 -8 8v24a8 8 0 0 0 8 8 41.211 41.211 0 0 1 13.06 2.12l14.291 4.764a21.768 21.768 0 0 0 28.649-20.65v-12.468a21.768 21.768 0 0 0 -28.649-20.65l-3.351 1.117v-10.233h36.686l35.314 35.313v14.063a24 24 0 1 0 16 0v-17.376a8 8 0 0 0 -2.343-5.657l-26.343-26.343h28.686v8a24 24 0 0 0 48 0v-8h12.468a23.97 23.97 0 0 0 22.768-16.41l4.354-13.06a8 8 0 0 0 -2.679-8.844zm-164.5 62.61a5.765 5.765 0 0 1 7.589 5.47v12.468a5.765 5.765 0 0 1 -7.589 5.47l-14.291-4.764a57.414 57.414 0 0 0 -10.12-2.38v-9.12a57.414 57.414 0 0 0 10.12-2.38zm71.589 55.704a8 8 0 1 1 8-8 8.009 8.009 0 0 1 -8 8zm-224-160h14.243l24.027 11.089-22.452.775zm-143.056 48 4.461-8.923 26.595-5.318v28.482l-26.595-5.318zm43.211 56h-14.025l14.4-24h18.825zm139.845 56a8 8 0 1 1 8-8 8.009 8.009 0 0 1 -8 8zm1.721-31.932c-.569-.04-1.142-.068-1.721-.068s-1.152.028-1.721.068l-2.652-23.868 9.224-4.305zm-43.495-24.068h-18.753l62.857-40h41.609zm265.774-16a8 8 0 0 1 -16 0v-8h16zm36.057-29.471a7.989 7.989 0 0 1 -7.589 5.471h-170.695l1.61-.751a8 8 0 0 0 -3.383-15.249h-80a8 8 0 0 0 -4.295 1.251l-23.177 14.749h-108.528v-32.271l209.312-7.218a99.345 99.345 0 0 0 31.517-6.278l34.44-12.916a83.533 83.533 0 0 1 80.608 12.277l42.743 33.246z"/></svg>